<svg width="124" height="124" viewBox="0 0 124 124" fill="none" xmlns="http://www.w3.org/2000/svg">
<circle cx="62" cy="62" r="60" fill="url(#paint0_linear_730_21647)"/>
<g filter="url(#filter0_i_730_21647)">
<path fill-rule="evenodd" clip-rule="evenodd" d="M91.8631 32.135C90.7281 31 88.9014 31 85.248 31H38.748C35.0947 31 33.268 31 32.133 32.135C30.998 33.2699 30.998 35.0966 30.998 38.75V82.6667C30.998 86.32 30.998 88.1467 32.133 89.2817C33.268 90.4167 35.0947 90.4167 38.748 90.4167H69.748C73.4014 90.4167 75.2281 90.4167 76.3631 89.2817C77.498 88.1467 77.498 86.32 77.498 82.6667C77.498 79.0133 77.498 77.1866 78.633 76.0516C79.768 74.9167 81.5947 74.9167 85.248 74.9167C88.9014 74.9167 90.7281 74.9167 91.8631 73.7817C92.998 72.6467 92.998 70.82 92.998 67.1667V38.75C92.998 35.0966 92.998 33.2699 91.8631 32.135ZM78.1437 51.4452C79.1526 50.4363 79.1526 48.8006 78.1437 47.7918C77.1349 46.7829 75.4992 46.7829 74.4904 47.7918L57.7446 64.5375C57.2402 65.042 56.4223 65.042 55.9179 64.5375L51.443 60.0626C50.4341 59.0538 48.7984 59.0538 47.7896 60.0626C46.7807 61.0715 46.7807 62.7071 47.7896 63.716L54.0912 70.0176C55.6045 71.5309 58.058 71.5309 59.5713 70.0176L78.1437 51.4452Z" fill="url(#paint1_linear_730_21647)"/>
</g>
<defs>
<filter id="filter0_i_730_21647" x="30.998" y="31" width="62" height="59.416" filterUnits="userSpaceOnUse" color-interpolation-filters="sRGB">
<feFlood flood-opacity="0" result="BackgroundImageFix"/>
<feBlend mode="normal" in="SourceGraphic" in2="BackgroundImageFix" result="shape"/>
<feColorMatrix in="SourceAlpha" type="matrix" values="0 0 0 0 0 0 0 0 0 0 0 0 0 0 0 0 0 0 127 0" result="hardAlpha"/>
<feOffset/>
<feGaussianBlur stdDeviation="2.58333"/>
<feComposite in2="hardAlpha" operator="arithmetic" k2="-1" k3="1"/>
<feColorMatrix type="matrix" values="0 0 0 0 1 0 0 0 0 1 0 0 0 0 1 0 0 0 0.5 0"/>
<feBlend mode="soft-light" in2="shape" result="effect1_innerShadow_730_21647"/>
</filter>
<linearGradient id="paint0_linear_730_21647" x1="62" y1="2" x2="62" y2="122" gradientUnits="userSpaceOnUse">
<stop stop-color="#43A85F"/>
<stop offset="1" stop-color="#5AC27C"/>
</linearGradient>
<linearGradient id="paint1_linear_730_21647" x1="63.1417" y1="27.6227" x2="105.074" y2="85.3934" gradientUnits="userSpaceOnUse">
<stop stop-color="white" stop-opacity="0.95"/>
<stop offset="1" stop-color="white" stop-opacity="0.7"/>
</linearGradient>
</defs>
</svg>
